<?xml version="1.0" standalone="no"?>
<!DOCTYPE svg PUBLIC "-//W3C//DTD SVG 20010904//EN"
 "http://www.w3.org/TR/2001/REC-SVG-20010904/DTD/svg10.dtd">
<svg version="1.0" xmlns="http://www.w3.org/2000/svg"
 width="1024.000000pt" height="1024.000000pt" viewBox="0 0 1024.000000 1024.000000"
 preserveAspectRatio="xMidYMid meet">
<metadata>
Created by potrace 1.14, written by Peter Selinger 2001-2017
</metadata>
<g transform="translate(0.000000,1024.000000) scale(0.100000,-0.100000)"
fill="#000000" stroke="none">
<path d="M0 5120 l0 -5120 5120 0 5120 0 0 5120 0 5120 -5120 0 -5120 0 0
-5120z m3045 3333 c116 -58 262 -161 341 -241 148 -147 222 -283 280 -507 42
-164 84 -257 159 -348 153 -185 382 -293 748 -352 l37 -6 -20 51 c-11 29 -27
65 -36 81 -8 16 -12 33 -9 38 2 5 67 -7 142 -26 146 -37 172 -38 318 -13 173
30 457 -6 649 -84 l89 -36 86 19 c243 53 432 151 564 290 94 101 148 203 182
342 30 129 53 196 95 279 89 176 231 328 410 439 114 70 270 146 270 130 0 -5
-15 -40 -34 -77 -59 -117 -77 -192 -83 -347 -7 -171 1 -208 92 -420 35 -83 77
-198 92 -255 25 -95 27 -121 27 -280 1 -196 -12 -261 -80 -424 -78 -187 -259
-407 -377 -460 l-28 -13 68 -39 c95 -54 245 -206 304 -309 92 -159 128 -296
136 -518 l6 -158 -82 55 c-45 31 -103 67 -129 80 -119 60 -330 136 -418 151
l-42 6 2 -123 c0 -68 -2 -153 -7 -189 -7 -64 -7 -66 19 -77 79 -37 172 -152
198 -246 10 -34 16 -120 18 -258 l4 -206 53 -58 c170 -186 238 -339 248 -559
7 -145 -13 -239 -78 -372 -32 -68 -57 -102 -125 -169 -46 -46 -84 -86 -84 -89
0 -3 209 -5 465 -5 l466 0 -3 -161 -3 -160 -382 2 c-358 3 -384 2 -402 -15
-11 -10 -23 -27 -26 -37 -5 -16 -16 -19 -61 -19 -47 0 -54 3 -54 20 0 11 -11
27 -24 35 -22 15 -82 16 -514 15 -412 0 -491 2 -501 14 -35 43 -157 68 -269
56 l-43 -4 -25 69 c-13 39 -24 76 -24 83 0 9 104 12 488 12 553 0 545 -1 631
76 27 25 59 65 71 89 18 38 32 49 86 76 201 95 306 344 248 589 -32 140 -145
322 -253 408 l-41 33 0 227 c0 262 -7 294 -78 373 -39 43 -146 109 -177 109
-8 0 -6 20 6 69 41 159 42 403 4 581 -22 104 -79 270 -125 365 -179 372 -564
720 -943 854 -239 84 -503 95 -635 27 -32 -17 -51 -40 -115 -141 -50 -77 -87
-72 -87 13 0 23 -3 42 -6 42 -3 0 -21 -12 -40 -27 -41 -31 -74 -85 -104 -168
-22 -60 -67 -115 -96 -115 -25 0 -64 47 -64 78 0 16 11 62 25 102 14 40 25 75
25 76 0 2 -33 -15 -72 -38 -281 -158 -560 -476 -679 -775 -44 -107 -87 -260
-104 -368 -25 -154 -15 -405 21 -551 5 -19 -1 -24 -45 -39 -64 -21 -148 -96
-181 -161 -22 -44 -25 -66 -31 -214 -4 -91 -8 -203 -9 -250 l-1 -85 -50 -38
c-100 -77 -203 -252 -233 -399 -42 -202 1 -367 126 -492 55 -54 109 -89 169
-109 9 -3 30 -29 46 -59 17 -29 49 -70 71 -90 74 -67 86 -68 639 -68 271 0
493 -2 493 -4 0 -3 -13 -38 -30 -78 l-29 -73 -63 3 c-83 3 -163 -14 -218 -46
l-45 -27 -574 -3 c-526 -3 -575 -1 -599 14 -15 10 -46 17 -71 17 -35 0 -49 -5
-67 -26 -21 -24 -30 -27 -93 -27 -38 0 -73 5 -76 10 -4 6 -96 10 -244 10
l-238 0 -6 113 c-4 61 -7 133 -7 160 l0 47 474 0 475 0 -87 87 c-48 49 -102
113 -120 145 -172 292 -106 699 155 967 l54 56 -1 175 c-1 196 7 254 47 338
30 64 119 159 174 185 l35 16 -14 98 c-8 62 -11 134 -8 196 6 91 5 98 -11 93
-10 -3 -56 -15 -102 -26 -160 -40 -314 -108 -451 -199 -47 -31 -91 -60 -99
-65 -12 -7 -13 11 -8 125 20 397 170 685 447 858 47 29 74 51 61 48 -32 -8
-99 41 -182 131 -196 213 -285 424 -296 703 -9 220 13 325 117 569 91 213 102
255 102 395 0 145 -21 233 -87 372 -25 53 -45 97 -45 99 0 5 69 -25 145 -63z
m3502 -450 c-8 -15 -23 -54 -32 -85 -16 -50 -22 -57 -49 -62 -45 -7 -2679 -8
-2699 0 -9 3 -17 14 -17 23 0 9 -11 46 -24 83 l-22 68 1425 2 c784 2 1427 2
1429 1 2 0 -3 -14 -11 -30z m-3642 10 c-2 -10 -9 -48 -16 -86 -12 -73 -8 -70
-96 -81 -111 -15 -223 -88 -277 -180 -59 -101 -56 31 -56 -2258 l0 -2098 -89
0 -89 0 -7 93 c-3 50 -5 1015 -3 2142 3 1900 5 2054 21 2108 56 188 187 321
360 363 29 7 98 13 154 13 91 1 101 -1 98 -16z m4683 2 c89 -21 152 -56 226
-126 73 -68 127 -162 145 -251 8 -37 12 -709 14 -2191 l2 -2137 -92 0 -93 0 0
2083 c0 1457 -3 2101 -11 2143 -14 76 -61 164 -112 210 -55 50 -150 93 -225
100 -68 7 -67 6 -77 94 -4 30 -9 63 -11 73 -5 15 4 17 83 17 48 0 116 -7 151
-15z m-3390 -501 c22 -15 30 -66 14 -90 -9 -13 -46 -34 -62 -34 -19 0 -60 48
-60 70 0 26 43 70 67 70 10 0 29 -7 41 -16z m1907 -9 c14 -13 25 -33 25 -45 0
-27 -43 -70 -70 -70 -57 0 -83 84 -38 123 28 24 55 21 83 -8z m-1024 -1012
c41 -70 81 -90 109 -56 9 12 20 40 24 63 7 46 29 61 54 36 37 -36 3 -198 -54
-259 -55 -60 -104 -55 -154 14 -67 93 -83 259 -24 259 6 0 26 -26 45 -57z
m-322 -117 c30 -54 66 -87 109 -100 28 -9 29 -44 1 -80 -19 -25 -25 -26 -68
-20 -78 11 -121 69 -121 161 0 46 20 93 40 93 4 0 22 -24 39 -54z m817 19 c25
-61 11 -135 -35 -187 -24 -27 -32 -30 -64 -24 -50 9 -125 86 -84 86 28 0 89
54 118 105 17 30 35 55 40 55 6 0 17 -16 25 -35z m-2780 -78 c50 -43 31 -117
-29 -117 -40 0 -67 26 -67 64 0 36 7 48 35 64 28 16 30 15 61 -11z m4743 -13
c25 -32 26 -52 5 -82 -18 -27 -69 -30 -96 -5 -10 9 -18 30 -18 46 0 65 70 91
109 41z m-3206 -88 c18 -7 45 -27 61 -44 25 -27 27 -34 16 -47 -14 -17 -17
-17 -89 10 -36 13 -53 14 -97 5 -60 -13 -133 -69 -154 -120 -15 -36 -26 -38
-33 -7 -11 43 21 134 60 169 50 46 169 63 236 34z m1785 -7 c73 -36 125 -128
108 -194 -7 -26 -26 -35 -26 -12 0 26 -63 98 -104 119 -49 26 -138 28 -184 4
-60 -31 -88 -10 -56 40 41 62 176 84 262 43z m-1553 -423 c77 -38 145 -109
187 -193 30 -62 33 -75 32 -158 0 -77 -4 -98 -27 -141 -35 -68 -72 -111 -126
-146 -60 -38 -76 -35 -36 5 32 32 65 114 65 162 0 40 -27 124 -51 160 -53 78
-161 123 -249 104 -80 -17 -133 -58 -169 -130 -48 -97 -41 -182 24 -278 18
-28 30 -51 26 -51 -19 0 -101 62 -138 104 -116 131 -110 340 13 475 77 86 167
122 299 118 77 -2 99 -6 150 -31z m1467 -4 c121 -60 198 -176 206 -313 8 -138
-48 -251 -158 -316 -61 -37 -97 -45 -56 -12 63 50 91 164 63 260 -32 108 -128
182 -236 182 -219 0 -322 -265 -170 -438 l33 -37 -52 26 c-69 35 -118 86 -152
158 -68 143 -37 299 81 417 79 79 167 112 289 108 74 -2 95 -7 152 -35z
m-1583 -278 c40 -50 23 -116 -35 -140 -80 -34 -145 76 -84 141 33 35 91 35
119 -1z m1430 9 c12 -10 24 -34 27 -54 13 -81 -95 -136 -145 -73 -12 15 -21
38 -21 51 0 29 25 79 42 86 28 12 77 6 97 -10z m-1325 -225 c14 -23 -3 -52
-32 -56 -30 -5 -45 29 -26 57 18 25 42 24 58 -1z m1446 2 c24 -46 -36 -82 -64
-38 -8 13 -6 22 8 37 24 26 42 27 56 1z m-1006 -100 c44 -37 97 -60 142 -60
40 0 108 30 133 60 37 41 65 47 95 17 32 -32 41 -97 26 -173 -13 -63 -47 -144
-60 -144 -5 0 -18 42 -31 93 l-22 94 -40 -20 c-62 -30 -133 -33 -190 -8 -27
12 -50 21 -51 21 -2 0 -11 -28 -21 -62 -9 -35 -21 -74 -25 -88 -11 -39 -23
-30 -50 35 -18 45 -24 79 -25 136 0 97 15 129 67 138 4 0 27 -17 52 -39z
m-155 -364 c34 -49 76 -86 97 -86 19 0 92 68 110 102 14 27 18 28 83 28 l69 0
36 -50 c19 -27 47 -57 61 -66 24 -16 29 -16 60 -1 19 9 51 39 71 67 l36 51
567 -3 566 -3 46 -27 c77 -45 79 -55 79 -367 l0 -271 -27 -2 c-46 -3 -56 -4
-103 -17 -65 -18 -123 -55 -159 -100 -38 -47 -38 -54 -4 -79 l27 -20 -40 -20
c-21 -11 -49 -31 -62 -45 l-23 -25 55 -77 c55 -77 61 -95 27 -95 -9 0 -27 -9
-38 -19 -22 -21 -20 -55 7 -131 36 -99 157 -230 230 -250 37 -10 39 -12 29
-34 -6 -13 -23 -29 -38 -36 -32 -15 -2863 -24 -2922 -9 -31 8 -89 54 -78 62 2
2 39 20 81 40 121 59 200 166 222 303 7 37 5 44 -20 63 -15 11 -37 21 -50 21
-24 0 -32 14 -14 25 5 3 32 36 60 72 l50 67 -26 27 c-14 15 -43 35 -65 44 -21
10 -39 22 -39 26 0 5 14 16 30 24 25 13 29 19 21 34 -30 55 -167 142 -233 146
-15 1 -39 2 -53 3 l-26 2 3 279 c3 264 4 281 24 307 28 39 66 65 105 74 19 4
282 8 586 9 l552 1 30 -44z m-1199 -777 l45 -23 -80 -8 c-166 -17 -281 -71
-342 -162 -37 -54 -42 -41 -14 33 34 91 107 160 194 182 55 14 149 4 197 -22z
m3240 -5 c63 -34 104 -82 130 -152 26 -67 25 -99 0 -51 -27 52 -103 115 -167
139 -30 11 -98 25 -151 30 -127 14 -132 19 -40 52 74 26 159 20 228 -18z
m-3140 -182 c0 -5 -27 -33 -59 -64 -57 -55 -104 -78 -159 -78 l-22 0 20 40
c24 47 54 77 95 96 33 14 125 19 125 6z m2907 -3 c40 -15 71 -47 100 -102 l24
-49 -43 7 c-24 4 -56 14 -73 22 -31 16 -135 112 -135 125 0 12 94 10 127 -3z
m-2902 -248 c5 -10 -40 -69 -80 -103 -19 -17 -115 -52 -122 -45 -5 5 28 69 46
91 19 22 65 47 106 57 43 10 43 10 50 0z m2837 -1 c48 -14 94 -53 119 -101
l19 -39 -27 0 c-16 0 -43 9 -60 20 -36 21 -43 33 -15 23 25 -9 9 5 -45 41 -46
30 -69 66 -41 66 7 0 30 -5 50 -10z m-3548 -900 l35 -31 2006 1 2007 0 30 -25
c41 -35 109 -35 144 0 l25 25 349 0 350 0 0 -47 c0 -27 -4 -54 -8 -60 -6 -10
-91 -13 -348 -16 l-339 -2 344 -3 344 -2 -7 -62 c-19 -175 -158 -325 -331
-357 -84 -16 -4943 -15 -5017 0 -82 17 -158 58 -214 114 -87 86 -119 169 -130
337 l-7 98 235 0 234 0 29 30 c28 30 30 30 132 30 100 0 103 -1 137 -30z"/>
<path d="M7007 8120 c-129 -119 -205 -248 -252 -430 -37 -142 -51 -183 -92
-265 -73 -146 -195 -281 -332 -370 -79 -51 -233 -118 -354 -155 l-88 -26 61
-38 c85 -53 263 -200 335 -277 250 -270 404 -546 469 -840 5 -23 13 -28 68
-39 93 -18 292 -86 380 -131 43 -21 79 -35 81 -31 10 16 -36 173 -73 247 -85
175 -244 313 -439 381 -36 13 -66 28 -66 34 0 6 19 23 41 38 127 83 263 210
338 316 51 70 124 213 150 290 23 67 39 92 30 46 -3 -19 -10 -40 -15 -46 -10
-13 -2 -44 11 -44 5 0 11 -8 13 -17 5 -19 9 157 11 402 1 160 -6 191 -95 405
-108 263 -113 286 -114 458 0 83 0 152 -1 152 -1 0 -31 -27 -67 -60z m-33
-317 c6 -43 6 -43 -24 -43 -35 0 -38 13 -13 65 20 41 28 36 37 -22z m45 -156
c6 -8 14 -27 17 -43 l6 -29 -87 3 -87 4 7 26 c4 15 11 33 17 39 14 18 112 17
127 0z m36 -197 c25 -12 52 -32 60 -44 16 -25 32 -105 41 -206 l7 -75 -38 37
c-53 51 -197 123 -288 143 l-75 17 40 80 41 81 83 -6 c57 -3 97 -12 129 -27z
m-275 -251 c76 -12 129 -34 205 -85 37 -24 54 -42 51 -51 -3 -8 -2 -12 3 -9 4
3 27 -16 50 -43 l41 -49 -20 -64 c-25 -76 -76 -178 -133 -265 l-42 -64 -27 60
c-75 168 -204 312 -366 407 -2 1 27 34 65 74 37 39 72 78 76 86 10 17 13 17
97 3z m-307 -260 c67 -34 162 -115 210 -178 24 -32 62 -103 84 -157 62 -152
64 -135 -14 -197 -37 -29 -83 -64 -100 -76 l-33 -22 -27 46 c-87 146 -292 376
-385 433 -16 9 -28 20 -28 24 0 4 30 23 68 42 37 19 92 51 122 70 30 19 56 35
58 35 1 1 22 -9 45 -20z m518 -1175 c5 -7 23 -14 39 -18 17 -3 30 -11 30 -17
0 -6 -7 -8 -16 -5 -9 3 -22 6 -29 6 -23 0 -45 30 -44 58 1 21 2 23 6 7 3 -11
9 -25 14 -31z"/>
<path d="M7082 7235 c0 -16 2 -22 5 -12 2 9 2 23 0 30 -3 6 -5 -1 -5 -18z"/>
<path d="M6630 6588 l-45 -40 48 31 c26 18 47 36 47 41 0 14 0 14 -50 -32z"/>
<path d="M3185 8043 c0 -155 -7 -187 -97 -416 -99 -256 -110 -302 -111 -477
-1 -81 5 -174 12 -210 37 -189 169 -412 342 -579 32 -31 59 -61 59 -68 0 -7 6
-10 13 -7 15 5 161 -102 149 -110 -4 -2 -39 -16 -77 -31 -197 -73 -360 -222
-442 -402 -31 -68 -53 -147 -53 -193 l0 -36 83 40 c101 48 285 112 371 127
l63 12 17 71 c44 185 178 450 327 646 125 165 389 393 517 447 l37 16 -115 28
c-133 33 -319 119 -417 193 -34 25 -96 83 -137 127 -100 106 -171 246 -220
435 -56 211 -106 305 -234 437 -42 42 -78 77 -81 77 -3 0 -6 -57 -6 -127z
m131 -218 c22 -53 19 -65 -17 -65 -23 0 -30 4 -26 14 3 8 9 31 13 50 3 20 8
36 11 36 2 0 11 -16 19 -35z m53 -201 c7 -19 11 -37 9 -38 -1 -2 -42 -6 -89
-8 l-87 -6 14 27 c8 14 14 31 14 38 0 16 17 21 75 22 50 1 51 0 64 -35z m82
-216 c18 -40 35 -76 36 -79 2 -3 -31 -13 -73 -23 -87 -21 -219 -83 -270 -128
-19 -17 -37 -28 -40 -26 -5 6 14 146 22 159 3 5 14 -1 24 -13 19 -23 19 -23
20 59 0 73 2 84 21 94 28 14 100 26 170 28 l56 1 34 -72z m183 -284 c43 -47
77 -86 75 -88 -2 -1 -26 -17 -52 -35 -111 -75 -216 -203 -288 -349 -22 -45
-44 -80 -50 -77 -31 20 -162 269 -190 363 -12 42 -12 43 21 77 38 39 56 43 76
18 11 -15 12 -13 2 14 -15 41 -4 55 76 96 72 36 167 65 216 66 31 0 43 -9 114
-85z m239 -198 c30 -19 88 -52 130 -73 43 -20 77 -40 77 -44 0 -3 -17 -18 -37
-31 -102 -68 -293 -278 -367 -404 l-41 -71 -70 53 c-39 28 -85 65 -103 80
l-33 29 30 75 c47 122 92 200 156 268 51 56 174 150 197 152 4 0 32 -15 61
-34z"/>
<path d="M3310 6876 c0 -2 8 -10 18 -17 15 -13 16 -12 3 4 -13 16 -21 21 -21
13z"/>
<path d="M3365 6810 c10 -11 20 -20 23 -20 3 0 -3 9 -13 20 -10 11 -20 20 -23
20 -3 0 3 -9 13 -20z"/>
<path d="M3530 6674 c0 -17 17 -36 24 -26 3 5 -1 15 -9 22 -8 7 -15 9 -15 4z"/>
<path d="M2993 6755 c0 -27 2 -38 4 -22 2 15 2 37 0 50 -2 12 -4 0 -4 -28z"/>
<path d="M2428 2973 c72 -2 192 -2 265 0 72 1 13 3 -133 3 -146 0 -205 -2
-132 -3z"/>
<path d="M2898 2973 c29 -2 74 -2 100 0 26 2 2 3 -53 3 -55 0 -76 -1 -47 -3z"/>
<path d="M3272 2973 c70 -2 187 -2 260 0 73 1 16 3 -127 3 -143 0 -203 -2
-133 -3z"/>
<path d="M6923 2973 c169 -2 445 -2 615 0 169 1 30 2 -308 2 -338 0 -477 -1
-307 -2z"/>
<path d="M3868 2963 c12 -2 30 -2 40 0 9 3 -1 5 -23 4 -22 0 -30 -2 -17 -4z"/>
<path d="M3988 2963 c12 -2 30 -2 40 0 9 3 -1 5 -23 4 -22 0 -30 -2 -17 -4z"/>
<path d="M5805 2961 c39 -3 111 -3 160 0 72 5 58 6 -70 6 -105 0 -136 -2 -90
-6z"/>
<path d="M6118 2963 c12 -2 32 -2 45 0 12 2 2 4 -23 4 -25 0 -35 -2 -22 -4z"/>
<path d="M6268 2963 c17 -2 47 -2 65 0 17 2 3 4 -33 4 -36 0 -50 -2 -32 -4z"/>
<path d="M3747 4719 c-37 -28 -37 -80 -1 -108 34 -27 55 -26 82 2 59 63 -15
159 -81 106z"/>
<path d="M3950 4703 c-25 -32 -20 -69 12 -95 27 -23 49 -23 82 3 19 15 26 30
26 53 0 66 -79 91 -120 39z"/>
<path d="M4177 4712 c-23 -25 -21 -78 3 -102 63 -63 152 36 93 103 -21 23 -75
22 -96 -1z"/>
<path d="M4548 4713 c-8 -10 -18 -23 -22 -30 -10 -18 11 -60 39 -79 43 -28
105 9 105 64 0 49 -90 82 -122 45z"/>
<path d="M4384 4692 c-6 -4 -14 -17 -18 -29 -5 -17 -1 -26 19 -39 24 -16 27
-16 45 1 11 10 20 26 20 35 0 32 -38 51 -66 32z"/>
<path d="M3632 4368 l2 -123 3 117 4 118 1494 -1 1494 0 4 -127 3 -127 2 133
2 132 -1505 0 -1505 0 2 -122z"/>
<path d="M5370 4431 c0 -7 -44 -11 -127 -14 -71 -1 -20 -3 112 -4 231 -1 256
6 88 22 -50 5 -73 4 -73 -4z"/>
<path d="M4460 4420 c-247 -4 -341 -8 -357 -18 -13 -7 -23 -15 -23 -18 0 -2
10 1 23 8 17 10 136 14 492 18 259 3 448 7 420 8 -138 6 -248 7 -555 2z"/>
<path d="M5668 4413 c12 -2 32 -2 45 0 12 2 2 4 -23 4 -25 0 -35 -2 -22 -4z"/>
<path d="M5893 4413 c43 -2 110 -2 150 0 40 1 5 3 -78 3 -82 0 -115 -2 -72 -3z"/>
<path d="M4187 4300 c-15 -12 -27 -29 -27 -39 0 -28 29 -60 58 -63 36 -4 26
-23 -13 -24 -19 0 -31 -6 -33 -15 -4 -23 21 -39 63 -41 41 -1 75 27 75 62 0
22 -45 60 -71 60 -11 0 -19 7 -19 15 0 17 23 19 51 5 15 -9 21 -7 26 5 8 21
-15 43 -52 51 -22 4 -38 0 -58 -16z"/>
<path d="M4586 4304 c-12 -12 -16 -36 -16 -100 0 -78 2 -84 20 -84 13 0 24 10
30 25 5 14 14 25 20 25 5 0 20 -11 32 -25 22 -25 58 -34 58 -15 0 6 -7 22 -16
35 -9 14 -12 25 -6 25 5 0 15 13 22 30 10 25 10 34 -4 55 -29 44 -109 61 -140
29z m97 -48 c8 -19 -1 -26 -35 -26 -21 0 -28 5 -28 20 0 15 7 20 29 20 16 0
31 -6 34 -14z"/>
<path d="M4790 4288 c1 -49 60 -162 87 -166 27 -4 44 22 72 108 18 55 19 66 7
78 -20 20 -32 9 -52 -46 -25 -67 -29 -69 -49 -15 -21 57 -33 73 -51 73 -9 0
-14 -11 -14 -32z"/>
<path d="M5032 4312 c-9 -6 -12 -33 -10 -98 l3 -88 45 -8 c61 -11 100 -2 100
23 0 16 -7 19 -45 19 -38 0 -45 3 -45 19 0 15 8 21 32 23 22 2 34 9 36 21 3
14 -4 17 -38 17 -29 0 -40 4 -37 13 2 7 22 12 48 13 37 0 44 4 47 22 3 16 -2
22 -16 22 -11 0 -39 2 -63 5 -24 3 -50 2 -57 -3z"/>
<path d="M5262 4313 l-33 -4 3 -92 c3 -84 5 -92 23 -92 13 0 21 8 23 23 4 29
27 28 54 -3 34 -39 72 -28 46 14 -9 15 -9 25 0 46 35 76 -13 121 -116 108z
m78 -58 c10 -12 8 -16 -15 -25 -39 -15 -45 -13 -45 15 0 20 5 25 24 25 13 0
29 -7 36 -15z"/>
<path d="M5461 4306 c-8 -9 -11 -45 -9 -98 3 -75 5 -83 23 -83 17 0 20 8 23
48 3 52 12 58 35 25 l15 -23 24 23 c13 12 27 22 29 22 3 0 5 -21 5 -47 -1 -42
2 -48 22 -51 21 -3 22 -1 22 86 0 116 -14 132 -68 79 l-37 -37 -28 35 c-31 39
-39 42 -56 21z"/>
<path d="M5743 4301 c-43 -27 -64 -91 -42 -130 8 -14 31 -34 51 -44 33 -16 40
-16 71 -4 39 17 72 75 63 112 -17 66 -88 99 -143 66z m72 -47 c34 -35 -3 -103
-42 -78 -25 15 -28 52 -7 75 21 23 28 24 49 3z"/>
<path d="M5939 4293 c-5 -14 -9 -58 -7 -97 3 -68 4 -71 28 -71 22 0 25 5 28
45 l3 45 43 -49 c31 -36 47 -48 60 -43 14 6 16 19 14 94 -3 83 -4 88 -25 91
-20 3 -23 -1 -24 -35 -1 -21 -1 -41 0 -45 3 -19 -16 -5 -33 23 -23 38 -52 69
-66 69 -6 0 -15 -12 -21 -27z"/>
<path d="M4376 4302 c-3 -5 -8 -38 -12 -74 -10 -95 0 -108 81 -108 62 0 65 1
65 24 0 22 -3 23 -45 18 -37 -4 -45 -2 -45 12 0 12 9 16 35 16 31 0 35 3 35
25 0 22 -4 25 -35 25 -19 0 -35 4 -35 10 0 13 44 23 69 15 18 -5 21 -2 21 19
0 25 -2 26 -64 26 -36 0 -67 -4 -70 -8z"/>
<path d="M6222 4202 c-2 -101 -2 -103 -36 -140 l-34 -37 -991 -3 c-545 -1
-991 -6 -991 -10 0 -8 1908 -5 1956 3 34 6 92 57 100 89 2 11 3 62 1 111 l-3
90 -2 -103z"/>
<path d="M4123 4023 c9 -2 23 -2 30 0 6 3 -1 5 -18 5 -16 0 -22 -2 -12 -5z"/>
<path d="M4347 3879 c-39 -23 -60 -106 -37 -150 14 -25 62 -49 101 -49 43 0
99 56 99 99 0 43 -20 80 -51 97 -32 16 -86 18 -112 3z"/>
<path d="M4603 3875 c-32 -22 -47 -77 -33 -119 15 -47 42 -68 94 -73 40 -5 48
-2 76 25 25 25 30 38 30 77 0 65 -39 105 -102 105 -24 0 -53 -7 -65 -15z"/>
<path d="M4856 3859 c-60 -71 -16 -179 72 -179 77 0 127 70 102 145 -15 46
-44 65 -101 65 -40 0 -51 -4 -73 -31z"/>
<path d="M5137 3870 c-78 -62 -39 -190 57 -190 74 0 123 65 104 137 -18 67
-106 96 -161 53z"/>
<path d="M2353 2553 c9 -2 25 -2 35 0 9 3 1 5 -18 5 -19 0 -27 -2 -17 -5z"/>
<path d="M2698 2553 c106 -2 277 -2 380 0 103 1 16 2 -193 2 -209 0 -293 -1
-187 -2z"/>
<path d="M3293 2554 c4 -4 296 -8 649 -9 354 -1 662 -4 686 -7 23 -3 42 -2 42
1 0 6 1241 7 1290 2 20 -2 138 -3 175 -1 17 1 278 5 580 8 384 5 -51 8 -1439
10 -1094 1 -1986 -1 -1983 -4z"/>
<path d="M2664 2452 c-16 -11 -34 -48 -34 -72 0 -29 44 -70 75 -70 61 0 98 87
55 130 -20 20 -74 27 -96 12z"/>
<path d="M3017 2442 c-9 -10 -20 -32 -23 -49 -5 -26 -1 -37 19 -57 33 -33 71
-33 102 -1 31 30 33 77 5 105 -25 25 -81 26 -103 2z"/>
<path d="M3766 2438 c-24 -34 -21 -93 6 -112 70 -49 161 35 111 102 -28 38
-94 43 -117 10z"/>
<path d="M4118 2449 c-22 -12 -34 -74 -20 -104 15 -32 73 -43 107 -21 41 27
45 85 9 121 -17 17 -70 19 -96 4z"/>
<path d="M4660 2440 c-30 -30 -27 -93 5 -114 35 -23 72 -20 100 9 30 30 32 64
4 99 -26 33 -79 36 -109 6z"/>
<path d="M5000 2440 c-29 -29 -27 -94 2 -114 65 -46 146 16 118 89 -6 16 -17
33 -23 37 -23 15 -77 8 -97 -12z"/>
<path d="M5336 2438 c-55 -79 39 -172 104 -103 27 29 29 78 4 106 -25 28 -88
26 -108 -3z"/>
<path d="M5665 2430 c-21 -41 -19 -67 10 -95 67 -68 165 24 109 103 -12 17
-25 22 -59 22 -39 0 -46 -4 -60 -30z"/>
<path d="M6014 2452 c-16 -11 -34 -48 -34 -72 0 -29 44 -70 75 -70 14 0 37 11
51 25 20 20 24 34 23 69 -2 25 -6 43 -10 40 -4 -2 -10 0 -14 6 -7 11 -75 13
-91 2z"/>
<path d="M6474 2452 c-40 -26 -44 -93 -8 -121 35 -28 69 -26 99 4 27 26 31 54
14 88 -16 29 -28 37 -64 37 -16 0 -35 -4 -41 -8z"/>
<path d="M7486 2438 c-25 -35 -20 -83 10 -107 37 -29 68 -26 98 10 29 34 32
50 15 82 -16 30 -28 37 -71 37 -27 0 -41 -6 -52 -22z"/>
</g>
</svg>
